<?xml version="1.0" encoding="UTF-8" standalone="no"?>
<!-- Created with Inkscape (http://www.inkscape.org/) -->
<svg
   xmlns:dc="http://purl.org/dc/elements/1.1/"
   xmlns:cc="http://web.resource.org/cc/"
   xmlns:rdf="http://www.w3.org/1999/02/22-rdf-syntax-ns#"
   xmlns:svg="http://www.w3.org/2000/svg"
   xmlns="http://www.w3.org/2000/svg"
   xmlns:sodipodi="http://inkscape.sourceforge.net/DTD/sodipodi-0.dtd"
   xmlns:inkscape="http://www.inkscape.org/namespaces/inkscape"
   inkscape:export-ydpi="90.000000"
   inkscape:export-xdpi="90.000000"
   inkscape:export-filename="/var/www/weblog/htdocs/images/dordoka/dordoka.png"
   width="210mm"
   height="297mm"
   id="svg2"
   sodipodi:version="0.32"
   inkscape:version="0.41.1"
   sodipodi:docbase="/var/www/weblog/htdocs/images/dordoka"
   sodipodi:docname="dordoka.svg">
  <defs
     id="defs3" />
  <sodipodi:namedview
     id="base"
     pagecolor="#ffffff"
     bordercolor="#666666"
     borderopacity="1.0"
     inkscape:pageopacity="0.0"
     inkscape:pageshadow="2"
     inkscape:zoom="0.18756036"
     inkscape:cx="374.99997"
     inkscape:cy="612.73831"
     inkscape:document-units="px"
     inkscape:current-layer="layer1"
     inkscape:window-width="640"
     inkscape:window-height="567"
     inkscape:window-x="88"
     inkscape:window-y="166" />
  <metadata
     id="metadata4">
    <rdf:RDF
       id="RDF5">
      <cc:Work
         rdf:about=""
         id="Work6">
        <dc:format
           id="format7">image/svg+xml</dc:format>
        <dc:type
           id="type9"
           rdf:resource="http://purl.org/dc/dcmitype/StillImage" />
      </cc:Work>
    </rdf:RDF>
  </metadata>
  <g
     inkscape:label="Layer 1"
     inkscape:groupmode="layer"
     id="layer1">
    <path
       sodipodi:type="star"
       style="fill:#628740;fill-opacity:1.0000000;stroke:none;stroke-opacity:0.99995202"
       id="path2055"
       sodipodi:cx="168.57143"
       sodipodi:cy="455.21933"
       sodipodi:r1="206.78748"
       sodipodi:r2="191.11584"
       sodipodi:arg1="0.73347454"
       sodipodi:arg2="1.4772407"
       inkscape:flatsided="false"
       inkscape:rounded="0.0000000"
       inkscape:randomized="0.0000000"
       d="M 322.18409,593.65419 L 186.42532,645.49940 L 125.48966,657.46923 L 12.710998,565.82129 L -28.123008,519.03437 L -5.1428928,375.54122 L 14.958762,316.78447 L 150.71754,264.93926 L 211.65320,252.96943 L 324.43185,344.61737 L 365.26586,391.40429 L 342.28575,534.89744 L 322.18409,593.65419 z "
       transform="matrix(0.577422,0.380745,-0.357220,0.566459,550.9909,96.03067)"
       sodipodi:sides="6" />
    <path
       sodipodi:type="star"
       style="fill:#628740;fill-opacity:1.0000000;stroke:none;stroke-opacity:0.99995202"
       id="path2057"
       sodipodi:cx="168.57143"
       sodipodi:cy="455.21933"
       sodipodi:r1="206.78748"
       sodipodi:r2="191.11584"
       sodipodi:arg1="0.73347454"
       sodipodi:arg2="1.4772407"
       inkscape:flatsided="false"
       inkscape:rounded="0.0000000"
       inkscape:randomized="0.0000000"
       d="M 322.18409,593.65419 L 186.42532,645.49940 L 125.48966,657.46923 L 12.710998,565.82129 L -28.123008,519.03437 L -5.1428928,375.54122 L 14.958762,316.78447 L 150.71754,264.93926 L 211.65320,252.96943 L 324.43185,344.61737 L 365.26586,391.40429 L 342.28575,534.89744 L 322.18409,593.65419 z "
       transform="matrix(0.566134,0.380745,-0.350237,0.566459,358.0950,-86.82647)"
       sodipodi:sides="6" />
    <path
       sodipodi:type="star"
       style="fill:#628740;fill-opacity:1.0000000;stroke:none;stroke-opacity:0.99995202"
       id="path2063"
       sodipodi:cx="168.57143"
       sodipodi:cy="455.21933"
       sodipodi:r1="206.78748"
       sodipodi:r2="191.11584"
       sodipodi:arg1="0.73347454"
       sodipodi:arg2="1.4772407"
       inkscape:flatsided="false"
       inkscape:rounded="0.0000000"
       inkscape:randomized="0.0000000"
       d="M 322.18409,593.65419 L 186.42532,645.49940 L 125.48966,657.46923 L 12.710998,565.82129 L -28.123008,519.03437 L -5.1428928,375.54122 L 14.958762,316.78447 L 150.71754,264.93926 L 211.65320,252.96943 L 324.43185,344.61737 L 365.26586,391.40429 L 342.28575,534.89744 L 322.18409,593.65419 z "
       transform="matrix(0.577422,0.380745,-0.357220,0.566459,296.7052,178.8878)"
       sodipodi:sides="6" />
    <g
       id="g2077"
       transform="matrix(0.644039,0.000000,0.000000,0.874066,32.52092,-58.68162)">
      <path
         style="fill:#628740;fill-opacity:1.0000000;stroke:none;stroke-opacity:0.99995202"
         d="M 153.65625,305.40625 C 152.72061,311.53814 150.49500,317.23917 147.03125,322.18750 L 67.281250,540.37500 L 130.68750,554.96875 L 163.28125,529.34375 L 227.81250,456.81250 L 220.93750,414.78125 L 188.56250,319.90625 L 153.65625,305.40625 z "
         id="path2065" />
      <path
         sodipodi:type="arc"
         style="fill:#628740;fill-opacity:1.0000000;stroke:none;stroke-opacity:0.99995202"
         id="path2067"
         sodipodi:cx="75.714287"
         sodipodi:cy="990.93359"
         sodipodi:rx="64.152115"
         sodipodi:ry="116.29939"
         d="M 139.86640,990.93359 A 64.152115,116.29939 0 1 1 84.241009,875.66606"
         transform="matrix(0.371215,0.186601,-0.325088,0.935751,408.3200,-517.6050)"
         sodipodi:start="0.0000000"
         sodipodi:end="4.8456976"
         sodipodi:open="true" />
    </g>
    <g
       id="g2087"
       transform="matrix(-0.240720,-0.383369,0.606711,-0.385845,164.7311,814.1709)">
      <path
         style="fill:#628740;fill-opacity:1.0000000;stroke:none;stroke-opacity:0.99995202"
         d="M 153.65625,305.40625 C 152.72061,311.53814 150.49500,317.23917 147.03125,322.18750 L 67.281250,540.37500 L 130.68750,554.96875 L 163.28125,529.34375 L 227.81250,456.81250 L 220.93750,414.78125 L 188.56250,319.90625 L 153.65625,305.40625 z "
         id="path2089" />
      <path
         sodipodi:type="arc"
         style="fill:#628740;fill-opacity:1.0000000;stroke:none;stroke-opacity:0.99995202"
         id="path2091"
         sodipodi:cx="75.714287"
         sodipodi:cy="990.93359"
         sodipodi:rx="118.57143"
         sodipodi:ry="121.42857"
         d="M 194.28571 990.93359 A 118.57143 121.42857 0 1 1  -42.857140,990.93359 A 118.57143 121.42857 0 1 1  194.28571 990.93359 z"
         transform="matrix(0.371215,0.186601,-0.325088,0.935751,408.3200,-517.6050)" />
    </g>
    <g
       id="g2095"
       transform="matrix(-0.296733,0.397124,-0.621483,-0.476808,796.7247,369.7339)">
      <path
         style="fill:#628740;fill-opacity:1.0000000;stroke:none;stroke-opacity:0.99995202"
         d="M 153.65625,305.40625 C 152.72061,311.53814 150.49500,317.23917 147.03125,322.18750 L 67.281250,540.37500 L 130.68750,554.96875 L 163.28125,529.34375 L 227.81250,456.81250 L 220.93750,414.78125 L 188.56250,319.90625 L 153.65625,305.40625 z "
         id="path2097" />
      <path
         sodipodi:type="arc"
         style="fill:#628740;fill-opacity:1.0000000;stroke:none;stroke-opacity:0.99995202"
         id="path2099"
         sodipodi:cx="75.714287"
         sodipodi:cy="990.93359"
         sodipodi:rx="118.57143"
         sodipodi:ry="121.42857"
         d="M 194.28571 990.93359 A 118.57143 121.42857 0 1 1  -42.857140,990.93359 A 118.57143 121.42857 0 1 1  194.28571 990.93359 z"
         transform="matrix(0.371215,0.186601,-0.325088,0.935751,408.3200,-517.6050)" />
    </g>
    <g
       id="g2101"
       transform="matrix(0.332447,-5.791855e-2,7.115969e-2,0.712559,1.758841,271.1928)">
      <path
         style="fill:#628740;fill-opacity:1.0000000;stroke:none;stroke-opacity:0.99995202"
         d="M 153.65625,305.40625 C 152.72061,311.53814 150.49500,317.23917 147.03125,322.18750 L 67.281250,540.37500 L 130.68750,554.96875 L 163.28125,529.34375 L 227.81250,456.81250 L 220.93750,414.78125 L 188.56250,319.90625 L 153.65625,305.40625 z "
         id="path2103" />
      <path
         sodipodi:type="arc"
         style="fill:#628740;fill-opacity:1.0000000;stroke:none;stroke-opacity:0.99995202"
         id="path2105"
         sodipodi:cx="75.714287"
         sodipodi:cy="990.93359"
         sodipodi:rx="118.57143"
         sodipodi:ry="121.42857"
         d="M 194.28571 990.93359 A 118.57143 121.42857 0 1 1  -42.857140,990.93359 A 118.57143 121.42857 0 1 1  194.28571 990.93359 z"
         transform="matrix(0.371215,0.186601,-0.325088,0.935751,408.3200,-517.6050)" />
    </g>
    <g
       id="g1315"
       transform="matrix(-0.559756,-0.973738,0.866314,-0.659811,-145.0862,1153.413)">
      <path
         style="fill:#628740;fill-opacity:1.0000000;stroke:none;stroke-opacity:0.99995202"
         d="M 153.65625,305.40625 C 152.72061,311.53814 150.49500,317.23917 147.03125,322.18750 L 67.281250,540.37500 L 130.68750,554.96875 L 163.28125,529.34375 L 227.81250,456.81250 L 220.93750,414.78125 L 188.56250,319.90625 L 153.65625,305.40625 z "
         id="path1317" />
      <path
         sodipodi:type="arc"
         style="fill:#628740;fill-opacity:1.0000000;stroke:none;stroke-opacity:0.99995202"
         id="path1319"
         sodipodi:cx="75.714287"
         sodipodi:cy="990.93359"
         sodipodi:rx="118.57143"
         sodipodi:ry="121.42857"
         d="M 194.28571 990.93359 A 118.57143 121.42857 0 1 1  -42.857140,990.93359 A 118.57143 121.42857 0 1 1  194.28571 990.93359 z"
         transform="matrix(0.371215,0.186601,-0.325088,0.935751,408.3200,-517.6050)" />
    </g>
    <g
       style="fill:#ffffff;fill-opacity:1.0000000"
       id="g1321"
       transform="matrix(-0.127039,-0.193060,0.320189,-0.194307,51.48597,834.9616)">
      <path
         style="stroke:none;stroke-opacity:0.99995202"
         d="M 153.65625,305.40625 C 152.72061,311.53814 150.49500,317.23917 147.03125,322.18750 L 67.281250,540.37500 L 130.68750,554.96875 L 163.28125,529.34375 L 227.81250,456.81250 L 220.93750,414.78125 L 188.56250,319.90625 L 153.65625,305.40625 z "
         id="path1323" />
      <path
         sodipodi:type="arc"
         style="stroke:none;stroke-opacity:0.99995202"
         id="path1325"
         sodipodi:cx="75.714287"
         sodipodi:cy="990.93359"
         sodipodi:rx="118.57143"
         sodipodi:ry="121.42857"
         d="M 194.28571 990.93359 A 118.57143 121.42857 0 1 1  -42.857140,990.93359 A 118.57143 121.42857 0 1 1  194.28571 990.93359 z"
         transform="matrix(0.371215,0.186601,-0.325088,0.935751,408.3200,-517.6050)" />
    </g>
    <path
       transform="matrix(0.304348,0.000000,0.000000,0.347826,26.83226,390.5468)"
       sodipodi:open="true"
       sodipodi:end="4.8456976"
       sodipodi:start="0.0000000"
       d="M 465.71429,925.21930 A 32.857143,32.857143 0 1 1 437.22433,892.65368"
       sodipodi:ry="32.857143"
       sodipodi:rx="32.857143"
       sodipodi:cy="925.21930"
       sodipodi:cx="432.85715"
       id="path2848"
       style="fill:#628740;fill-opacity:1.0000000;stroke:none;stroke-width:12.000000;stroke-miterlimit:4.0000000;stroke-opacity:0.99995202"
       sodipodi:type="arc" />
    <path
       transform="matrix(0.333333,0.000000,0.000000,1.285714,-66.66666,-387.6137)"
       sodipodi:open="true"
       sodipodi:end="4.8456976"
       sodipodi:start="0.0000000"
       d="M 474.28571,916.64789 A 30.000000,10.000000 0 1 1 448.27313,906.73661"
       sodipodi:ry="10.000000"
       sodipodi:rx="30.000000"
       sodipodi:cy="916.64789"
       sodipodi:cx="444.28571"
       id="path2852"
       style="fill:#ffffff;fill-opacity:1.0000000;stroke:none;stroke-width:12.000000;stroke-miterlimit:4.0000000;stroke-opacity:0.99995202"
       sodipodi:type="arc" />
    <rect
       transform="matrix(-2.681329e-3,-0.999996,0.999997,-2.309135e-3,0.000000,0.000000)"
       ry="39.085236"
       rx="52.257889"
       y="311.47864"
       x="-844.16034"
       height="109.01920"
       width="138.42873"
       id="rect3612"
       style="fill:#628740;fill-opacity:1.0000000;stroke:none;stroke-width:12.000000;stroke-miterlimit:4.0000000;stroke-opacity:0.99995202" />
    <rect
       transform="matrix(-2.488281e-3,-0.999997,0.999997,-2.488281e-3,0.000000,0.000000)"
       ry="16.324179"
       rx="48.994053"
       y="330.95618"
       x="-768.21844"
       height="94.639984"
       width="117.95872"
       id="rect3614"
       style="fill:#628740;fill-opacity:1.0000000;stroke:none;stroke-width:12.000000;stroke-miterlimit:4.0000000;stroke-opacity:0.99995202" />
    <path
       transform="translate(-250.4141,-126.6224)"
       sodipodi:open="true"
       sodipodi:end="4.0881280"
       sodipodi:start="2.3238728"
       d="M 578.93814,993.90148 A 35.281448,40.204441 0 0 1 582.44472,931.94709"
       sodipodi:ry="40.204441"
       sodipodi:rx="35.281448"
       sodipodi:cy="964.56879"
       sodipodi:cx="603.06665"
       id="path3616"
       style="fill:#628740;fill-opacity:1.0000000;stroke:none;stroke-width:12.000000;stroke-miterlimit:4.0000000;stroke-opacity:0.99995202"
       sodipodi:type="arc" />
    <path
       transform="matrix(0.983086,-0.183144,0.183144,0.983086,-389.9123,17.15107)"
       sodipodi:open="true"
       sodipodi:end="4.0881280"
       sodipodi:start="2.3238728"
       d="M 578.93814,993.90148 A 35.281448,40.204441 0 0 1 582.44472,931.94709"
       sodipodi:ry="40.204441"
       sodipodi:rx="35.281448"
       sodipodi:cy="964.56879"
       sodipodi:cx="603.06665"
       id="path3618"
       style="fill:#628740;fill-opacity:1.0000000;stroke:none;stroke-width:12.000000;stroke-miterlimit:4.0000000;stroke-opacity:0.99995202"
       sodipodi:type="arc" />
    <path
       transform="matrix(0.953752,-0.300595,0.300595,0.953752,-456.6000,109.6638)"
       sodipodi:open="true"
       sodipodi:end="4.0881280"
       sodipodi:start="2.3238728"
       d="M 578.93814,993.90148 A 35.281448,40.204441 0 0 1 582.44472,931.94709"
       sodipodi:ry="40.204441"
       sodipodi:rx="35.281448"
       sodipodi:cy="964.56879"
       sodipodi:cx="603.06665"
       id="path3620"
       style="fill:#628740;fill-opacity:1.0000000;stroke:none;stroke-width:12.000000;stroke-miterlimit:4.0000000;stroke-opacity:0.99995202"
       sodipodi:type="arc" />
    <g
       transform="matrix(0.782572,0.000000,0.000000,0.797917,111.8293,-66.30034)"
       id="g3632">
      <rect
         transform="matrix(-0.723736,-0.690077,0.690346,-0.723479,0.000000,0.000000)"
         ry="49.434853"
         rx="66.156174"
         y="-168.42471"
         x="-1081.0449"
         height="109.01913"
         width="138.42860"
         id="rect3622"
         style="fill:#628740;fill-opacity:1.0000000;stroke:none;stroke-width:12.000000;stroke-miterlimit:4.0000000;stroke-opacity:0.99995202" />
      <rect
         transform="matrix(-0.723603,-0.690217,0.690217,-0.723603,0.000000,0.000000)"
         ry="20.646711"
         rx="62.024162"
         y="-147.88298"
         x="-1047.4807"
         height="94.640038"
         width="117.95876"
         id="rect3624"
         style="fill:#628740;fill-opacity:1.0000000;stroke:none;stroke-width:12.000000;stroke-miterlimit:4.0000000;stroke-opacity:0.99995202" />
      <path
         transform="matrix(0.692015,-0.721883,0.721883,0.692015,-424.5539,603.8140)"
         sodipodi:open="true"
         sodipodi:end="4.0881280"
         sodipodi:start="2.3238728"
         d="M 578.93814,993.90148 A 35.281448,40.204441 0 0 1 582.44472,931.94709"
         sodipodi:ry="40.204441"
         sodipodi:rx="35.281448"
         sodipodi:cy="964.56879"
         sodipodi:cx="603.06665"
         id="path3626"
         style="fill:#628740;fill-opacity:1.0000000;stroke:none;stroke-width:12.000000;stroke-miterlimit:4.0000000;stroke-opacity:0.99995202"
         sodipodi:type="arc" />
      <path
         transform="matrix(0.548102,-0.836411,0.836411,0.548102,-417.3011,804.0088)"
         sodipodi:open="true"
         sodipodi:end="4.0881280"
         sodipodi:start="2.3238728"
         d="M 578.93814,993.90148 A 35.281448,40.204441 0 0 1 582.44472,931.94709"
         sodipodi:ry="40.204441"
         sodipodi:rx="35.281448"
         sodipodi:cy="964.56879"
         sodipodi:cx="603.06665"
         id="path3628"
         style="fill:#628740;fill-opacity:1.0000000;stroke:none;stroke-width:12.000000;stroke-miterlimit:4.0000000;stroke-opacity:0.99995202"
         sodipodi:type="arc" />
      <path
         transform="matrix(0.443016,-0.896514,0.896514,0.443016,-396.6666,916.1697)"
         sodipodi:open="true"
         sodipodi:end="4.0881280"
         sodipodi:start="2.3238728"
         d="M 578.93814,993.90148 A 35.281448,40.204441 0 0 1 582.44472,931.94709"
         sodipodi:ry="40.204441"
         sodipodi:rx="35.281448"
         sodipodi:cy="964.56879"
         sodipodi:cx="603.06665"
         id="path3630"
         style="fill:#628740;fill-opacity:1.0000000;stroke:none;stroke-width:12.000000;stroke-miterlimit:4.0000000;stroke-opacity:0.99995202"
         sodipodi:type="arc" />
    </g>
    <path
       transform="matrix(1.846153,1.899480,-3.013273,2.370476,2443.385,-3038.673)"
       sodipodi:open="true"
       sodipodi:end="4.0881280"
       sodipodi:start="2.3238728"
       d="M 578.93814,993.90148 A 35.281448,40.204441 0 0 1 582.44472,931.94709"
       sodipodi:ry="40.204441"
       sodipodi:rx="35.281448"
       sodipodi:cy="964.56879"
       sodipodi:cx="603.06665"
       id="path3643"
       style="fill:#628740;fill-opacity:1.0000000;stroke:none;stroke-width:12.000000;stroke-miterlimit:4.0000000;stroke-opacity:0.99995202"
       sodipodi:type="arc" />
  </g>
</svg>
