<?xml version="1.0" encoding="UTF-8" standalone="no"?>
<!-- Created with Inkscape (http://www.inkscape.org/) -->
<svg
   xmlns:dc="http://purl.org/dc/elements/1.1/"
   xmlns:cc="http://web.resource.org/cc/"
   xmlns:rdf="http://www.w3.org/1999/02/22-rdf-syntax-ns#"
   xmlns:svg="http://www.w3.org/2000/svg"
   xmlns="http://www.w3.org/2000/svg"
   xmlns:sodipodi="http://sodipodi.sourceforge.net/DTD/sodipodi-0.dtd"
   xmlns:inkscape="http://www.inkscape.org/namespaces/inkscape"
   width="264.00003"
   height="258.28571"
   id="svg2"
   sodipodi:version="0.32"
   inkscape:version="0.44"
   sodipodi:docbase="/var/www/weblog/htdocs/images/svg"
   sodipodi:docname="key.svg"
   version="1.0"
   inkscape:export-filename="/var/www/weblog/htdocs/images/user.png"
   inkscape:export-xdpi="6.9690266"
   inkscape:export-ydpi="6.9690266">
  <defs
     id="defs4" />
  <sodipodi:namedview
     id="base"
     pagecolor="#ffffff"
     bordercolor="#666666"
     borderopacity="1.0"
     inkscape:pageopacity="0.0"
     inkscape:pageshadow="2"
     inkscape:zoom="0.7"
     inkscape:cx="252.59369"
     inkscape:cy="11.049511"
     inkscape:document-units="px"
     inkscape:current-layer="layer1"
     inkscape:window-width="1073"
     inkscape:window-height="595"
     inkscape:window-x="0"
     inkscape:window-y="28" />
  <metadata
     id="metadata7">
    <rdf:RDF>
      <cc:Work
         rdf:about="">
        <dc:format>image/svg+xml</dc:format>
        <dc:type
           rdf:resource="http://purl.org/dc/dcmitype/StillImage" />
      </cc:Work>
    </rdf:RDF>
  </metadata>
  <g
     inkscape:label="Capa 1"
     inkscape:groupmode="layer"
     id="layer1"
     transform="translate(-115.1429,-553.2193)">
    <rect
       style="fill:white;fill-opacity:1;stroke:#f9b209;stroke-width:4.24541092;stroke-miterlimit:4;stroke-dasharray:none;stroke-opacity:1"
       id="rect2770"
       width="259.75461"
       height="254.0403"
       x="117.26556"
       y="555.34204" />
    <path
       sodipodi:type="arc"
       style="fill:#f9b209;fill-opacity:1;stroke:#f9b209;stroke-width:0;stroke-miterlimit:4;stroke-dasharray:none;stroke-dashoffset:0;stroke-opacity:1"
       id="path4609"
       sodipodi:cx="-255.71428"
       sodipodi:cy="174.71428"
       sodipodi:rx="74.285713"
       sodipodi:ry="43.57143"
       d="M -181.42857 174.71428 A 74.285713 43.57143 0 1 1  -329.99999,174.71428 A 74.285713 43.57143 0 1 1  -181.42857 174.71428 z"
       transform="matrix(0.999999,0,0,1.540983,456.5715,359.416)" />
    <g
       id="g6405"
       transform="matrix(-0.806783,-0.893651,0.999047,-0.689434,-586.0307,1281.233)">
      <rect
         y="840.07642"
         x="-103.42853"
         height="31.428568"
         width="198.57143"
         id="rect5498"
         style="fill:#f9b209;fill-opacity:1;stroke:#f9b209;stroke-width:0;stroke-miterlimit:4;stroke-dasharray:none;stroke-dashoffset:0;stroke-opacity:1" />
      <path
         transform="matrix(2.666638,0,0,0.760632,932.3053,638.7556)"
         d="M -342.85713,293.99997 L -358.95442,289.24955 L -371.9935,299.81703 L -372.44992,283.03964 L -386.52948,273.90427 L -370.71427,268.28569 L -366.37684,252.07224 L -356.14609,265.37716 L -339.38584,264.49207 L -348.8781,278.33354 L -342.85713,293.99997 z "
         inkscape:randomized="0"
         inkscape:rounded="0"
         inkscape:flatsided="false"
         sodipodi:arg2="1.373738"
         sodipodi:arg1="0.74541948"
         sodipodi:r2="12.637005"
         sodipodi:r1="25.27401"
         sodipodi:cy="276.85712"
         sodipodi:cx="-361.42856"
         sodipodi:sides="5"
         id="path6387"
         style="fill:#f9b209;fill-opacity:1;stroke:#f9b209;stroke-width:0;stroke-miterlimit:4;stroke-dasharray:none;stroke-dashoffset:0;stroke-opacity:1"
         sodipodi:type="star" />
      <path
         transform="matrix(0.250798,0,0,0.284122,31.51637,806.5914)"
         d="M -254.2857,198.2857 L -256.2157,205.95335 L -359.10232,219.69625 L -366.99109,220.23015 L -411.85507,126.62596 L -414.80061,119.28827 L -339.64146,47.694797 L -333.57313,42.625957 L -242.25824,91.982955 L -235.56227,96.187923 L -254.2857,198.2857 z "
         inkscape:randomized="0"
         inkscape:rounded="0"
         inkscape:flatsided="false"
         sodipodi:arg2="0.81430372"
         sodipodi:arg1="0.74098295"
         sodipodi:r2="95.010551"
         sodipodi:r1="91.003471"
         sodipodi:cy="136.85713"
         sodipodi:cx="-321.42856"
         sodipodi:sides="5"
         id="path6391"
         style="fill:#f9b209;fill-opacity:1;stroke:#f9b209;stroke-width:0;stroke-miterlimit:4;stroke-dasharray:none;stroke-dashoffset:0;stroke-opacity:1"
         sodipodi:type="star" />
      <path
         transform="matrix(0.250798,0,0,0.284122,65.26918,804.1634)"
         d="M -254.2857,198.2857 L -256.2157,205.95335 L -359.10232,219.69625 L -366.99109,220.23015 L -411.85507,126.62596 L -414.80061,119.28827 L -339.64146,47.694797 L -333.57313,42.625957 L -242.25824,91.982955 L -235.56227,96.187923 L -254.2857,198.2857 z "
         inkscape:randomized="0"
         inkscape:rounded="0"
         inkscape:flatsided="false"
         sodipodi:arg2="0.81430372"
         sodipodi:arg1="0.74098295"
         sodipodi:r2="95.010551"
         sodipodi:r1="91.003471"
         sodipodi:cy="136.85713"
         sodipodi:cx="-321.42856"
         sodipodi:sides="5"
         id="path6393"
         style="fill:#f9b209;fill-opacity:1;stroke:#f9b209;stroke-width:0;stroke-miterlimit:4;stroke-dasharray:none;stroke-dashoffset:0;stroke-opacity:1"
         sodipodi:type="star" />
      <path
         transform="matrix(0.250798,0,0,0.284122,99.5549,807.0205)"
         d="M -254.2857,198.2857 L -256.2157,205.95335 L -359.10232,219.69625 L -366.99109,220.23015 L -411.85507,126.62596 L -414.80061,119.28827 L -339.64146,47.694797 L -333.57313,42.625957 L -242.25824,91.982955 L -235.56227,96.187923 L -254.2857,198.2857 z "
         inkscape:randomized="0"
         inkscape:rounded="0"
         inkscape:flatsided="false"
         sodipodi:arg2="0.81430372"
         sodipodi:arg1="0.74098295"
         sodipodi:r2="95.010551"
         sodipodi:r1="91.003471"
         sodipodi:cy="136.85713"
         sodipodi:cx="-321.42856"
         sodipodi:sides="5"
         id="path6395"
         style="fill:#f9b209;fill-opacity:1;stroke:#f9b209;stroke-width:0;stroke-miterlimit:4;stroke-dasharray:none;stroke-dashoffset:0;stroke-opacity:1"
         sodipodi:type="star" />
      <path
         transform="matrix(0.266738,0,0,0.243904,146.167,814.4492)"
         d="M -254.2857,198.2857 L -256.2157,205.95335 L -359.10232,219.69625 L -366.99109,220.23015 L -411.85507,126.62596 L -414.80061,119.28827 L -339.64146,47.694797 L -333.57313,42.625957 L -242.25824,91.982955 L -235.56227,96.187923 L -254.2857,198.2857 z "
         inkscape:randomized="0"
         inkscape:rounded="0"
         inkscape:flatsided="false"
         sodipodi:arg2="0.81430372"
         sodipodi:arg1="0.74098295"
         sodipodi:r2="95.010551"
         sodipodi:r1="91.003471"
         sodipodi:cy="136.85713"
         sodipodi:cx="-321.42856"
         sodipodi:sides="5"
         id="path6397"
         style="fill:#f9b209;fill-opacity:1;stroke:#f9b209;stroke-width:0;stroke-miterlimit:4;stroke-dasharray:none;stroke-dashoffset:0;stroke-opacity:1"
         sodipodi:type="star" />
      <path
         transform="matrix(0.202977,0,0,0.284122,88.28996,807.0206)"
         d="M -254.2857,198.2857 L -256.2157,205.95335 L -359.10232,219.69625 L -366.99109,220.23015 L -411.85507,126.62596 L -414.80061,119.28827 L -339.64146,47.694797 L -333.57313,42.625957 L -242.25824,91.982955 L -235.56227,96.187923 L -254.2857,198.2857 z "
         inkscape:randomized="0"
         inkscape:rounded="0"
         inkscape:flatsided="false"
         sodipodi:arg2="0.81430372"
         sodipodi:arg1="0.74098295"
         sodipodi:r2="95.010551"
         sodipodi:r1="91.003471"
         sodipodi:cy="136.85713"
         sodipodi:cx="-321.42856"
         sodipodi:sides="5"
         id="path6399"
         style="fill:#f9b209;fill-opacity:1;stroke:#f9b209;stroke-width:0;stroke-miterlimit:4;stroke-dasharray:none;stroke-dashoffset:0;stroke-opacity:1"
         sodipodi:type="star" />
      <path
         transform="matrix(0.266738,0,0,0.243904,7.595428,816.592)"
         d="M -254.2857,198.2857 L -256.2157,205.95335 L -359.10232,219.69625 L -366.99109,220.23015 L -411.85507,126.62596 L -414.80061,119.28827 L -339.64146,47.694797 L -333.57313,42.625957 L -242.25824,91.982955 L -235.56227,96.187923 L -254.2857,198.2857 z "
         inkscape:randomized="0"
         inkscape:rounded="0"
         inkscape:flatsided="false"
         sodipodi:arg2="0.81430372"
         sodipodi:arg1="0.74098295"
         sodipodi:r2="95.010551"
         sodipodi:r1="91.003471"
         sodipodi:cy="136.85713"
         sodipodi:cx="-321.42856"
         sodipodi:sides="5"
         id="path6401"
         style="fill:#f9b209;fill-opacity:1;stroke:#f9b209;stroke-width:0;stroke-miterlimit:4;stroke-dasharray:none;stroke-dashoffset:0;stroke-opacity:1"
         sodipodi:type="star" />
      <path
         transform="matrix(3.027088e-2,-0.186543,0.242502,1.733564e-2,-119.7423,791.2155)"
         d="M -254.2857,198.2857 L -256.2157,205.95335 L -359.10232,219.69625 L -366.99109,220.23015 L -411.85507,126.62596 L -414.80061,119.28827 L -339.64146,47.694797 L -333.57313,42.625957 L -242.25824,91.982955 L -235.56227,96.187923 L -254.2857,198.2857 z "
         inkscape:randomized="0"
         inkscape:rounded="0"
         inkscape:flatsided="false"
         sodipodi:arg2="0.81430372"
         sodipodi:arg1="0.74098295"
         sodipodi:r2="95.010551"
         sodipodi:r1="91.003471"
         sodipodi:cy="136.85713"
         sodipodi:cx="-321.42856"
         sodipodi:sides="5"
         id="path6403"
         style="fill:#f9b209;fill-opacity:1;stroke:#f9b209;stroke-width:0;stroke-miterlimit:4;stroke-dasharray:none;stroke-dashoffset:0;stroke-opacity:1"
         sodipodi:type="star" />
    </g>
    <path
       sodipodi:type="arc"
       style="fill:white;fill-opacity:1;stroke:#f9b209;stroke-width:0;stroke-miterlimit:4;stroke-dasharray:none;stroke-dashoffset:0;stroke-opacity:1"
       id="path5496"
       sodipodi:cx="-207.14285"
       sodipodi:cy="260.42856"
       sodipodi:rx="18.571428"
       sodipodi:ry="17.857143"
       d="M -188.57142 260.42856 A 18.571428 17.857143 0 1 1  -225.71428,260.42856 A 18.571428 17.857143 0 1 1  -188.57142 260.42856 z"
       transform="matrix(1.461538,0,0,1.44,487.8902,235.0592)" />
  </g>
</svg>
